# xmcd
#
# Track frame offsets:
#	150
#	14678
#	29937
#	48758
#	63959
#	79939
#	96136
#	110777
#	127058
#	144459
#	161900
#	179366
#	196972
#	213597
#	231238
#	243540
#	258398
#	271084
#
# Disc length: 3808 seconds
#
# Revision: 1
# Processed by: cddbd v1.5.1PL0 Copyright (c) Steve Scherf et al.
# Submitted via: audiograbber 1.80
#
DISCID=120ede12
DTITLE=Various Artist - Hott Country 104
DYEAR=1900
DGENRE=
TTITLE0=Caroline Dawn Johnson - Head Over High Heels
TTITLE1=Shania Twain and Billy Curlington - Party For Two ( Country Version )
TTITLE2=Big and Rich - Holy Water
TTITLE3=Gord Bamford - Heroes
TTITLE4=Toby Keith - Stays In Mexico
TTITLE5=David Lee Murphy - Inspiration
TTITLE6=George Canyon - I'll Never Do Better Than You ( Canadian Version )
TTITLE7=Reba McEntire - He Gets That From Me
TTITLE8=Tracy Byrd - Revenge Of A Middle Aged Woman
TTITLE9=Emerson Drive - November ( Single Edit )
TTITLE10=Jake Matthews - Signs Of You Everywhere
TTITLE11=Beverly Mahood - I Like That Shirt
TTITLE12=Billy Dean - Let Them Be Little
TTITLE13=Pat Green - Don't Break My Heart Again
TTITLE14=Stompin' Tom Connors - Hockey Mom Tribute
TTITLE15=Travis Tritt Feat John Mellancamp - What Say You
TTITLE16=Adam Harvey - The House That Jack Built
TTITLE17=Chris Cummings - Not Again
EXTD=
EXTT0=
EXTT1=
EXTT2=
EXTT3=
EXTT4=
EXTT5=
EXTT6=
EXTT7=
EXTT8=
EXTT9=
EXTT10=
EXTT11=
EXTT12=
EXTT13=
EXTT14=
EXTT15=
EXTT16=
EXTT17=
PLAYORDER=
